<svg width="79" height="40" viewBox="0 0 79 40" fill="none" xmlns="http://www.w3.org/2000/svg">
<path d="M0.828125 0H74.875C77.0841 0 78.875 1.79086 78.875 4V36C78.875 38.2091 77.0841 40 74.875 40H0.828125V0Z" fill="#76797F" fill-opacity="0.05"/>
<g clip-path="url(#clip0_1_4940)">
<path fill-rule="evenodd" clip-rule="evenodd" d="M43.3438 16.5C43.3438 19.2614 41.1051 21.5 38.3438 21.5C35.5823 21.5 33.3438 19.2614 33.3438 16.5C33.3438 13.7386 35.5823 11.5 38.3438 11.5C41.1051 11.5 43.3438 13.7386 43.3438 16.5ZM42.1835 21.7451C41.1077 22.5341 39.7802 23 38.3438 23C34.7539 23 31.8438 20.0899 31.8438 16.5C31.8438 12.9102 34.7539 10 38.3438 10C41.9337 10 44.8438 12.9102 44.8438 16.5C44.8438 17.9364 44.3778 19.264 43.5889 20.3398L47.5527 24.3036C47.9407 24.6917 47.9407 25.3209 47.5527 25.709C47.1646 26.097 46.5355 26.097 46.1474 25.709L42.1835 21.7451Z" fill="black"/>
</g>
<defs>
<clipPath id="clip0_1_4940">
<rect width="24" height="24" fill="white" transform="translate(27.8438 6)"/>
</clipPath>
</defs>
</svg>
