<svg width="24" height="24" viewBox="0 0 24 24" fill="none" xmlns="http://www.w3.org/2000/svg">
<rect x="4" y="10" width="16" height="10" rx="1" fill="#5C5CD6"/>
<rect x="5" y="11" width="14" height="8" rx="1" fill="#EAEAF9"/>
<rect x="4" y="10" width="16" height="10" rx="1" stroke="#5C5CD6" stroke-width="2"/>
<path d="M5.00781 5C5.00781 2.79086 6.79867 1 9.00781 1H14.9922C17.2013 1 18.9922 2.79086 18.9922 5C18.9922 5 18.0968 5 16.9922 5H7.00781C5.90324 5 5.00781 5 5.00781 5ZM18.9922 5H5.00781H18.9922ZM5.00781 5V3V5ZM18.9922 3V5V3Z" fill="#5C5CD6" mask="url(#path-3-inside-1_1_4930)"/>
<mask id="path-5-inside-2_1_4930" fill="white">
<path d="M4.01562 8C4.01562 6.89543 4.91106 6 6.01562 6H17.9844C19.0889 6 19.9844 6.89543 19.9844 8V8H4.01562V8Z"/>
</mask>
<path d="M4.01562 8C4.01562 6.89543 4.91106 6 6.01562 6H17.9844C19.0889 6 19.9844 6.89543 19.9844 8V8H4.01562V8Z" fill="#5C5CD6"/>
<path d="M4.01562 8C4.01562 5.79086 5.80649 4 8.01562 4H15.9844C18.1935 4 19.9844 5.79086 19.9844 8C19.9844 8 19.0889 8 17.9844 8H6.01562C4.91106 8 4.01562 8 4.01562 8ZM19.9844 8H4.01562H19.9844ZM4.01562 8V6V8ZM19.9844 6V8V6Z" fill="#5C5CD6" mask="url(#path-5-inside-2_1_4930)"/>
</svg>
