<svg width="25" height="24" viewBox="0 0 25 24" fill="none" xmlns="http://www.w3.org/2000/svg">
<g opacity="0.87" clip-path="url(#clip0_1_4946)">
<path fill-rule="evenodd" clip-rule="evenodd" d="M12.875 3C10.6659 3 8.875 4.79086 8.875 7V8C8.875 10.2091 10.6659 12 12.875 12C15.0841 12 16.875 10.2091 16.875 8V7C16.875 4.79086 15.0841 3 12.875 3ZM10.375 7C10.375 5.61929 11.4943 4.5 12.875 4.5C14.2557 4.5 15.375 5.61929 15.375 7V8C15.375 9.38071 14.2557 10.5 12.875 10.5C11.4943 10.5 10.375 9.38071 10.375 8V7ZM6.37732 19.3686C6.84821 16.2577 9.89303 14.5 12.8772 14.5C15.8608 14.5 18.906 16.2577 19.3769 19.3686C19.3796 19.3866 19.3775 19.3972 19.375 19.4048C19.372 19.4137 19.3653 19.4269 19.3509 19.442C19.3203 19.4741 19.2644 19.5039 19.1921 19.5039H6.56218C6.48987 19.5039 6.43398 19.4741 6.40338 19.442C6.38894 19.4269 6.38226 19.4137 6.37927 19.4048C6.37674 19.3972 6.37461 19.3865 6.37732 19.3686ZM12.8772 13C9.44821 13 5.51537 15.0404 4.89422 19.1441C4.73124 20.2208 5.63227 21.0039 6.56218 21.0039H19.1921C20.122 21.0039 21.023 20.2208 20.86 19.1441C20.2388 15.0404 16.3056 13 12.8772 13Z" fill="black"/>
</g>
<defs>
<clipPath id="clip0_1_4946">
<rect width="24" height="24" fill="white" transform="translate(0.875)"/>
</clipPath>
</defs>
</svg>
