<svg width="216" height="32" viewBox="0 0 216 32" fill="none" xmlns="http://www.w3.org/2000/svg">
<mask id="mask0_1_4928" style="mask-type:luminance" maskUnits="userSpaceOnUse" x="0" y="0" width="216" height="32">
<path d="M215.5 0H0.5V32H215.5V0Z" fill="white"/>
</mask>
<g mask="url(#mask0_1_4928)">
<path d="M185.13 9.9482H189.547L183.966 16.2628L190.009 22.9514H185.581L179.75 16.5839V22.9514H176V5.92307H179.75V16.0406L185.13 9.9482Z" fill="#7000FF"/>
<path d="M167.597 12.7422V9.94467H163.847V22.9479H167.597V17.2047C167.597 14.9787 169.213 13.55 171.269 13.55H173.721V9.66951H171.88C169.601 9.68009 167.953 11.6133 167.597 12.7422Z" fill="#7000FF"/>
<path fill-rule="evenodd" clip-rule="evenodd" d="M158.996 9.94467V18.383C158.996 19.5189 159.317 19.7976 160.076 19.7941H160.669V22.9479H158.52C157.807 22.9842 157.103 22.7825 156.517 22.3744C155.931 21.9663 155.498 21.375 155.285 20.6937C154.372 22.3235 152.463 23.2513 150.382 23.2513C146.445 23.2513 143.926 19.847 144.007 16.4322C144.007 13.0561 146.233 9.69067 150.569 9.69067C153.087 9.69067 154.506 10.7913 155.313 11.9943L155.285 9.94467H158.996ZM147.627 16.471C147.627 18.5276 149.232 19.9987 151.348 19.9987C153.55 19.9987 155.141 18.51 155.141 16.471C155.141 14.4319 153.55 12.9891 151.348 12.9891C149.218 12.9891 147.627 14.4143 147.627 16.471Z" fill="#7000FF"/>
<path d="M130.828 12.1178C131.717 10.6608 133.505 9.6942 135.876 9.6942C139.908 9.6942 141.841 12.2377 141.841 15.388V22.9408H138.091V15.9065C138.091 14.4214 137.23 13.0843 135.428 13.0843C133.625 13.0843 132.736 14.3543 132.736 15.8642V22.962H128.972V15.8748C128.972 14.3649 128.027 13.0949 126.213 13.0949C124.4 13.0949 123.603 14.4214 123.603 15.9171V22.9514H119.853V15.388C119.853 12.2377 121.906 9.6942 125.924 9.6942C127.963 9.6942 129.924 10.6608 130.828 12.1178Z" fill="#7000FF"/>
<path fill-rule="evenodd" clip-rule="evenodd" d="M197.318 9.6942C192.997 9.6942 190.263 12.1036 190.263 16.4604C190.263 20.8171 192.993 23.2548 197.353 23.2548C203.612 23.2548 203.996 19.0215 203.996 19.0215H199.876C199.876 19.0215 199.558 20.3444 197.357 20.3444C194.958 20.3444 194.217 18.9016 194.217 17.4728H204.236C204.285 17.1386 204.312 16.8016 204.317 16.4639C204.317 12.1036 201.573 9.6942 197.318 9.6942ZM194.27 15.1763C194.27 14.118 194.976 12.6081 197.318 12.6081C199.661 12.6081 200.313 14.118 200.313 15.1763H194.27Z" fill="#7000FF"/>
<path d="M215.5 9.70127V12.721L211.415 12.7316V17.3176C211.415 19.1309 211.895 19.6988 213.179 19.6988H215.5V22.9831H213.179C209.443 22.9831 207.679 21.4486 207.679 17.808V12.7351H205.785V10.5761L209.404 7.1225H211.429V9.70127H215.5Z" fill="#7000FF"/>
<path d="M104.123 9.68008C101.749 9.68008 99.9607 10.6467 99.0717 12.1177C98.1721 10.6467 96.2107 9.68008 94.1682 9.68008C90.1642 9.68008 88.097 12.2377 88.097 15.3879V22.9514H91.8505V15.9171C91.8505 14.4072 92.6442 13.0949 94.461 13.0949C96.2778 13.0949 97.2302 14.3649 97.2302 15.8748V22.962H100.98V15.8642C100.98 14.3543 101.869 13.0843 103.672 13.0843C105.475 13.0843 106.335 14.4072 106.335 15.9065V22.9408H110.085V15.3879C110.085 12.2377 108.152 9.68008 104.123 9.68008Z" fill="#7000FF"/>
<path d="M68.8003 9.93408V13.0985L61.3109 19.787H69.2483V22.9514H56.3263V19.787L63.8297 13.0985H56.6191V9.93408H68.8003Z" fill="#7000FF"/>
<path d="M78.5827 19.7729C80.3183 19.7729 81.4825 18.8169 81.4825 16.7532V9.94467H85.236V16.8943C85.236 21.4345 81.4401 23.1983 78.5933 23.1983C75.7464 23.1983 71.9541 21.4239 71.9541 16.8943V9.94467H75.7182V16.7532C75.7182 18.8169 76.847 19.7729 78.5827 19.7729Z" fill="#7000FF"/>
<path d="M47.2212 19.7729C48.9427 19.7729 50.1105 18.8169 50.1105 16.7532V9.94467H53.8605V16.8943C53.8605 21.4345 50.0575 23.1983 47.2353 23.1983C44.3708 23.1983 40.5927 21.4239 40.5927 16.8943V9.94467H44.3461V16.7532C44.3461 18.8169 45.4997 19.7729 47.2212 19.7729Z" fill="#7000FF"/>
<path d="M32.4896 16.0053C32.4889 19.1704 31.5498 22.2643 29.7912 24.8955C28.0326 27.5268 25.5334 29.5772 22.6098 30.7875C19.6861 31.9978 16.4693 32.3135 13.3663 31.6949C10.2632 31.0762 7.41329 29.5508 5.17692 27.3117C2.94055 25.0726 1.41822 22.2204 0.802472 19.1158C0.186726 16.0111 0.505224 12.7936 1.71768 9.87001C2.93014 6.94646 4.9821 4.44826 7.61402 2.6914C10.2459 0.934529 13.3396 -0.00208978 16.5037 3.5011e-06C18.6047 -0.000924639 20.6854 0.412484 22.6266 1.21658C24.5679 2.02068 26.3316 3.1997 27.817 4.68621C29.3023 6.17271 30.4802 7.93754 31.2831 9.87977C32.0861 11.822 32.4985 13.9035 32.4966 16.0053H32.4896ZM18.3304 5.5597C17.7309 5.50326 17.1173 5.47856 16.4966 5.47856C15.8759 5.47856 15.2658 5.50326 14.6663 5.5597V14.0933H18.3304V5.5597ZM26.7942 10.5338C25.4588 10.0949 24.0942 9.7507 22.7104 9.5037V16.672C22.7104 21.8296 20.5239 24.5424 16.4931 24.5424C12.4622 24.5424 10.2828 21.8296 10.2828 16.672V9.5037C8.89803 9.75113 7.53226 10.0953 6.19556 10.5338V16.7108C6.17024 18.0799 6.41792 19.4402 6.92414 20.7124C7.43035 21.9845 8.18495 23.143 9.14384 24.1201C10.1027 25.0973 11.2467 25.8734 12.5088 26.4033C13.771 26.9331 15.1261 27.206 16.4949 27.206C17.8637 27.206 19.2187 26.9331 20.4809 26.4033C21.7431 25.8734 22.887 25.0973 23.8459 24.1201C24.8048 23.143 25.5594 21.9845 26.0656 20.7124C26.5718 19.4402 26.8195 18.0799 26.7942 16.7108V10.5338Z" fill="#7000FF"/>
</g>
</svg>
