<svg width="25" height="24" viewBox="0 0 25 24" fill="none" xmlns="http://www.w3.org/2000/svg">
<path fill-rule="evenodd" clip-rule="evenodd" d="M8.40625 5.5C6.1756 5.5 4.40625 7.30906 4.40625 9.5C4.40625 10.4282 4.78309 11.4436 5.45495 12.5105C6.12317 13.5716 7.04773 14.6274 8.05752 15.6219C9.46394 17.007 10.9381 18.1879 12.0771 19.1003C12.3797 19.3427 12.6585 19.5661 12.9062 19.7694C13.154 19.5661 13.4328 19.3427 13.7354 19.1003C14.8744 18.1879 16.3485 17.007 17.7549 15.6219C18.7647 14.6274 19.6893 13.5716 20.3575 12.5105C21.0294 11.4436 21.4062 10.4282 21.4062 9.5C21.4062 7.30898 19.6377 5.5 17.4062 5.5C15.2536 5.5 13.9801 7.20226 13.6325 7.74742C13.2952 8.27655 12.5173 8.27653 12.18 7.74742C11.8324 7.20225 10.559 5.5 8.40625 5.5ZM2.90625 9.5C2.90625 6.49094 5.3369 4 8.40625 4C10.6377 4 12.1312 5.30207 12.9062 6.21581C13.6813 5.30207 15.1748 4 17.4062 4C20.4764 4 22.9062 6.49102 22.9062 9.5C22.9062 10.8218 22.3769 12.1189 21.6269 13.3098C20.8732 14.5066 19.8603 15.6539 18.8076 16.6906C17.3492 18.1269 15.7142 19.4384 14.5564 20.3672C14.0711 20.7565 13.6697 21.0786 13.4002 21.3144C13.1174 21.5619 12.6951 21.5619 12.4123 21.3144C12.1428 21.0786 11.7414 20.7565 11.2561 20.3672C10.0983 19.4384 8.46337 18.1269 7.00498 16.6906C5.95227 15.6539 4.93933 14.5066 4.18567 13.3098C3.43566 12.1189 2.90625 10.8218 2.90625 9.5Z" fill="#141415"/>
</svg>
