<svg width="25" height="24" viewBox="0 0 25 24" fill="none" xmlns="http://www.w3.org/2000/svg">
<g opacity="0.87" clip-path="url(#clip0_1_4956)">
<path fill-rule="evenodd" clip-rule="evenodd" d="M9.92188 6.5C9.92188 4.88779 11.1621 3.5 12.9219 3.5C14.6817 3.5 15.9219 4.88779 15.9219 6.5V7.5H9.92188V6.5ZM8.42188 9V11.5H9.92188V9H15.9219V11.5H17.4219V9H19.4219V19.75C19.4219 20.1642 19.0861 20.5 18.6719 20.5H7.17188C6.75767 20.5 6.42188 20.1642 6.42188 19.75V9H8.42188ZM8.42188 7.5V6.5C8.42188 4.11221 10.2817 2 12.9219 2C15.5621 2 17.4219 4.11221 17.4219 6.5V7.5H20.1719H20.9219V8.25V19.75C20.9219 20.9926 19.9145 22 18.6719 22H7.17188C5.92923 22 4.92188 20.9926 4.92188 19.75V8.25V7.5H5.67188H8.42188Z" fill="#141415"/>
</g>
<defs>
<clipPath id="clip0_1_4956">
<rect width="24" height="24" fill="white" transform="translate(0.921875)"/>
</clipPath>
</defs>
</svg>
